<svg width="40" height="30" viewBox="0 0 40 30" fill="none" xmlns="http://www.w3.org/2000/svg">
<path d="M36.019 6.89893H3.98103C2.92519 6.89893 1.9126 6.54896 1.16602 5.92601C0.419429 5.30306 0 4.45817 0 3.57718C0 2.6962 0.419429 1.85131 1.16602 1.22836C1.9126 0.605405 2.92519 0.255435 3.98103 0.255435H36.019C37.0748 0.255435 38.0874 0.605405 38.834 1.22836C39.5806 1.85131 40 2.6962 40 3.57718C40 4.45817 39.5806 5.30306 38.834 5.92601C38.0874 6.54896 37.0748 6.89893 36.019 6.89893Z" fill="#000228"/>
<path d="M36.019 18.2878H3.98103C2.92519 18.2878 1.9126 17.9378 1.16602 17.3149C0.419429 16.6919 0 15.847 0 14.966C0 14.085 0.419429 13.2402 1.16602 12.6172C1.9126 11.9943 2.92519 11.6443 3.98103 11.6443H36.019C37.0748 11.6443 38.0874 11.9943 38.834 12.6172C39.5806 13.2402 40 14.085 40 14.966C40 15.847 39.5806 16.6919 38.834 17.3149C38.0874 17.9378 37.0748 18.2878 36.019 18.2878Z" fill="#000228"/>
<path d="M36.019 29.6766H3.98103C2.92519 29.6766 1.9126 29.3267 1.16602 28.7037C0.419429 28.0808 0 27.2359 0 26.3549C0 25.4739 0.419429 24.629 1.16602 24.0061C1.9126 23.3831 2.92519 23.0331 3.98103 23.0331H36.019C37.0748 23.0331 38.0874 23.3831 38.834 24.0061C39.5806 24.629 40 25.4739 40 26.3549C40 27.2359 39.5806 28.0808 38.834 28.7037C38.0874 29.3267 37.0748 29.6766 36.019 29.6766Z" fill="#000228"/>
</svg>
