<svg width="290" height="18" viewBox="0 0 290 18" fill="none" xmlns="http://www.w3.org/2000/svg">
<path fill-rule="evenodd" clip-rule="evenodd" d="M18.6817 7.11577H2.73025C2.44333 7.11577 2.21074 7.34836 2.21074 7.63528V14.1115C2.21074 14.3984 2.44333 14.631 2.73025 14.631H18.6817C18.9686 14.631 19.2012 14.3984 19.2012 14.1115V7.63528C19.2012 7.34836 18.9686 7.11577 18.6817 7.11577ZM2.73025 5.31519C1.4489 5.31519 0.410156 6.35393 0.410156 7.63528V14.1115C0.410156 15.3928 1.4489 16.4316 2.73025 16.4316H18.6817C19.963 16.4316 21.0017 15.3928 21.0017 14.1115V7.63528C21.0017 6.35393 19.963 5.31519 18.6817 5.31519H2.73025Z" fill="#0688FF"/>
<path fill-rule="evenodd" clip-rule="evenodd" d="M15.5062 2.80058H5.90698C5.62006 2.80058 5.38747 3.03318 5.38747 3.3201V5.33321H16.0257V3.3201C16.0257 3.03318 15.7931 2.80058 15.5062 2.80058ZM5.90698 1C4.62563 1 3.58688 2.03874 3.58688 3.3201V7.13379H17.8263V3.3201C17.8263 2.03874 16.7875 1 15.5062 1H5.90698Z" fill="#0688FF"/>
<path d="M36.568 5.166H31.878V7.952C32.074 7.69067 32.3634 7.47133 32.746 7.294C33.138 7.11667 33.5534 7.028 33.992 7.028C34.776 7.028 35.4107 7.196 35.896 7.532C36.3907 7.868 36.7407 8.29267 36.946 8.806C37.1607 9.31933 37.268 9.86067 37.268 10.43C37.268 11.1207 37.1327 11.7367 36.862 12.278C36.6007 12.81 36.204 13.23 35.672 13.538C35.1494 13.846 34.5054 14 33.74 14C32.7227 14 31.906 13.748 31.29 13.244C30.674 12.74 30.3054 12.0727 30.184 11.242H31.738C31.8407 11.6807 32.0694 12.0307 32.424 12.292C32.7787 12.544 33.222 12.67 33.754 12.67C34.4167 12.67 34.9114 12.4693 35.238 12.068C35.574 11.6667 35.742 11.1347 35.742 10.472C35.742 9.8 35.574 9.28667 35.238 8.932C34.902 8.568 34.4074 8.386 33.754 8.386C33.2967 8.386 32.9094 8.50267 32.592 8.736C32.284 8.96 32.06 9.268 31.92 9.66H30.408V3.766H36.568V5.166ZM48.2642 9.002C48.7868 9.09533 49.2302 9.37067 49.5942 9.828C49.9582 10.2853 50.1402 10.8033 50.1402 11.382C50.1402 11.8767 50.0095 12.3247 49.7482 12.726C49.4962 13.118 49.1275 13.4307 48.6422 13.664C48.1568 13.888 47.5922 14 46.9482 14H43.0562V4.27H46.7662C47.4288 4.27 47.9982 4.382 48.4742 4.606C48.9502 4.83 49.3095 5.13333 49.5522 5.516C49.7948 5.88933 49.9162 6.30933 49.9162 6.776C49.9162 7.336 49.7668 7.80267 49.4682 8.176C49.1695 8.54933 48.7682 8.82467 48.2642 9.002ZM44.6522 8.358H46.6262C47.1488 8.358 47.5548 8.24133 47.8442 8.008C48.1428 7.76533 48.2922 7.42 48.2922 6.972C48.2922 6.53333 48.1428 6.19267 47.8442 5.95C47.5548 5.698 47.1488 5.572 46.6262 5.572H44.6522V8.358ZM46.8082 12.698C47.3495 12.698 47.7742 12.5673 48.0822 12.306C48.3902 12.0447 48.5442 11.6807 48.5442 11.214C48.5442 10.738 48.3808 10.36 48.0542 10.08C47.7275 9.8 47.2935 9.66 46.7522 9.66H44.6522V12.698H46.8082ZM59.0845 9.954C59.0845 10.2433 59.0659 10.5047 59.0285 10.738H53.1345C53.1812 11.354 53.4099 11.8487 53.8205 12.222C54.2312 12.5953 54.7352 12.782 55.3325 12.782C56.1912 12.782 56.7979 12.4227 57.1525 11.704H58.8745C58.6412 12.4133 58.2165 12.9967 57.6005 13.454C56.9939 13.902 56.2379 14.126 55.3325 14.126C54.5952 14.126 53.9325 13.9627 53.3445 13.636C52.7659 13.3 52.3085 12.8333 51.9725 12.236C51.6459 11.6293 51.4825 10.9293 51.4825 10.136C51.4825 9.34267 51.6412 8.64733 51.9585 8.05C52.2852 7.44333 52.7379 6.97667 53.3165 6.65C53.9045 6.32333 54.5765 6.16 55.3325 6.16C56.0605 6.16 56.7092 6.31867 57.2785 6.636C57.8479 6.95333 58.2912 7.40133 58.6085 7.98C58.9259 8.54933 59.0845 9.20733 59.0845 9.954ZM57.4185 9.45C57.4092 8.862 57.1992 8.39067 56.7885 8.036C56.3779 7.68133 55.8692 7.504 55.2625 7.504C54.7119 7.504 54.2405 7.68133 53.8485 8.036C53.4565 8.38133 53.2232 8.85267 53.1485 9.45H57.4185ZM60.2632 10.108C60.2632 9.33333 60.4218 8.64733 60.7392 8.05C61.0658 7.45267 61.5045 6.99067 62.0552 6.664C62.6152 6.328 63.2358 6.16 63.9172 6.16C64.4212 6.16 64.9158 6.272 65.4012 6.496C65.8958 6.71067 66.2878 7 66.5772 7.364V3.64H68.1872V14H66.5772V12.838C66.3158 13.2113 65.9518 13.5193 65.4852 13.762C65.0278 14.0047 64.5005 14.126 63.9032 14.126C63.2312 14.126 62.6152 13.958 62.0552 13.622C61.5045 13.2767 61.0658 12.8007 60.7392 12.194C60.4218 11.578 60.2632 10.8827 60.2632 10.108ZM66.5772 10.136C66.5772 9.604 66.4652 9.142 66.2412 8.75C66.0265 8.358 65.7418 8.05933 65.3872 7.854C65.0325 7.64867 64.6498 7.546 64.2392 7.546C63.8285 7.546 63.4458 7.64867 63.0912 7.854C62.7365 8.05 62.4472 8.344 62.2232 8.736C62.0085 9.11867 61.9012 9.576 61.9012 10.108C61.9012 10.64 62.0085 11.1067 62.2232 11.508C62.4472 11.9093 62.7365 12.2173 63.0912 12.432C63.4552 12.6373 63.8378 12.74 64.2392 12.74C64.6498 12.74 65.0325 12.6373 65.3872 12.432C65.7418 12.2267 66.0265 11.928 66.2412 11.536C66.4652 11.1347 66.5772 10.668 66.5772 10.136ZM73.2234 14.126C72.6168 14.126 72.0708 14.0187 71.5854 13.804C71.1094 13.58 70.7314 13.2813 70.4514 12.908C70.1714 12.5253 70.0221 12.1007 70.0034 11.634H71.6554C71.6834 11.9607 71.8374 12.236 72.1174 12.46C72.4068 12.6747 72.7661 12.782 73.1954 12.782C73.6434 12.782 73.9888 12.698 74.2314 12.53C74.4834 12.3527 74.6094 12.1287 74.6094 11.858C74.6094 11.5687 74.4694 11.354 74.1894 11.214C73.9188 11.074 73.4848 10.92 72.8874 10.752C72.3088 10.5933 71.8374 10.4393 71.4734 10.29C71.1094 10.1407 70.7921 9.912 70.5214 9.604C70.2601 9.296 70.1294 8.89 70.1294 8.386C70.1294 7.97533 70.2508 7.602 70.4934 7.266C70.7361 6.92067 71.0814 6.65 71.5294 6.454C71.9868 6.258 72.5094 6.16 73.0974 6.16C73.9748 6.16 74.6794 6.384 75.2114 6.832C75.7528 7.27067 76.0421 7.87267 76.0794 8.638H74.4834C74.4554 8.29267 74.3154 8.01733 74.0634 7.812C73.8114 7.60667 73.4708 7.504 73.0414 7.504C72.6214 7.504 72.2994 7.58333 72.0754 7.742C71.8514 7.90067 71.7394 8.11067 71.7394 8.372C71.7394 8.57733 71.8141 8.75 71.9634 8.89C72.1128 9.03 72.2948 9.142 72.5094 9.226C72.7241 9.30067 73.0414 9.39867 73.4614 9.52C74.0214 9.66933 74.4788 9.82333 74.8334 9.982C75.1974 10.1313 75.5101 10.3553 75.7714 10.654C76.0328 10.9527 76.1681 11.3493 76.1774 11.844C76.1774 12.2827 76.0561 12.6747 75.8134 13.02C75.5708 13.3653 75.2254 13.636 74.7774 13.832C74.3388 14.028 73.8208 14.126 73.2234 14.126Z" fill="#4D4D52"/>
<path fill-rule="evenodd" clip-rule="evenodd" d="M101.579 8.21582L102.389 14.7319C102.425 15.02 102.67 15.2363 102.96 15.2363H117.651C117.938 15.2363 118.182 15.0241 118.221 14.7394L119.119 8.21582H101.579ZM101.276 6.37354C100.329 6.37354 99.5966 7.20312 99.7134 8.14279L100.561 14.9592C100.711 16.1698 101.74 17.0786 102.96 17.0786H117.651C118.859 17.0786 119.881 16.1871 120.046 14.9905L120.986 8.16321C121.116 7.21695 120.381 6.37354 119.425 6.37354H101.276Z" fill="#0C8BFF"/>
<path fill-rule="evenodd" clip-rule="evenodd" d="M109.464 2.35155C108.778 2.73478 108.487 3.20201 108.45 3.54734L108.327 4.6737L107.249 4.32378C106.293 4.01315 105.678 4.03055 105.291 4.14691C104.925 4.25695 104.664 4.48466 104.461 4.82558C104.008 5.58476 103.928 6.75045 103.928 7.69597L102.086 7.69597C102.086 6.77887 102.135 5.12737 102.879 3.88153C103.273 3.21995 103.877 2.6482 104.761 2.38266C105.398 2.19096 106.121 2.17697 106.931 2.33734C107.284 1.66381 107.889 1.12138 108.565 0.743439C109.574 0.179432 110.876 -0.105262 112.235 0.03571C115.032 0.325772 117.928 2.384 119.257 7.14624L117.482 7.64129C116.321 3.47687 113.962 2.06701 112.045 1.86817C111.047 1.76469 110.128 1.98034 109.464 2.35155Z" fill="#0C8BFF"/>
<path d="M132.005 11.83C132.901 11.0553 133.606 10.4207 134.119 9.926C134.642 9.422 135.076 8.89933 135.421 8.358C135.767 7.81667 135.939 7.27533 135.939 6.734C135.939 6.174 135.804 5.73533 135.533 5.418C135.272 5.10067 134.857 4.942 134.287 4.942C133.737 4.942 133.307 5.11933 132.999 5.474C132.701 5.81933 132.542 6.286 132.523 6.874H130.983C131.011 5.81 131.329 4.998 131.935 4.438C132.551 3.86867 133.331 3.584 134.273 3.584C135.291 3.584 136.084 3.864 136.653 4.424C137.232 4.984 137.521 5.73067 137.521 6.664C137.521 7.336 137.349 7.98467 137.003 8.61C136.667 9.226 136.261 9.78133 135.785 10.276C135.319 10.7613 134.721 11.326 133.993 11.97L133.363 12.53H137.801V13.86H130.997V12.698L132.005 11.83ZM144.646 7.434C144.917 7.06067 145.285 6.75733 145.752 6.524C146.228 6.28133 146.755 6.16 147.334 6.16C148.015 6.16 148.631 6.32333 149.182 6.65C149.733 6.97667 150.167 7.44333 150.484 8.05C150.801 8.64733 150.96 9.33333 150.96 10.108C150.96 10.8827 150.801 11.578 150.484 12.194C150.167 12.8007 149.728 13.2767 149.168 13.622C148.617 13.958 148.006 14.126 147.334 14.126C146.737 14.126 146.205 14.0093 145.738 13.776C145.281 13.5427 144.917 13.244 144.646 12.88V14H143.05V3.64H144.646V7.434ZM149.336 10.108C149.336 9.576 149.224 9.11867 149 8.736C148.785 8.344 148.496 8.05 148.132 7.854C147.777 7.64867 147.395 7.546 146.984 7.546C146.583 7.546 146.2 7.64867 145.836 7.854C145.481 8.05933 145.192 8.358 144.968 8.75C144.753 9.142 144.646 9.604 144.646 10.136C144.646 10.668 144.753 11.1347 144.968 11.536C145.192 11.928 145.481 12.2267 145.836 12.432C146.2 12.6373 146.583 12.74 146.984 12.74C147.395 12.74 147.777 12.6373 148.132 12.432C148.496 12.2173 148.785 11.9093 149 11.508C149.224 11.1067 149.336 10.64 149.336 10.108ZM155.884 14.126C155.156 14.126 154.498 13.9627 153.91 13.636C153.322 13.3 152.86 12.8333 152.524 12.236C152.188 11.6293 152.02 10.9293 152.02 10.136C152.02 9.352 152.193 8.65667 152.538 8.05C152.884 7.44333 153.355 6.97667 153.952 6.65C154.55 6.32333 155.217 6.16 155.954 6.16C156.692 6.16 157.359 6.32333 157.956 6.65C158.554 6.97667 159.025 7.44333 159.37 8.05C159.716 8.65667 159.888 9.352 159.888 10.136C159.888 10.92 159.711 11.6153 159.356 12.222C159.002 12.8287 158.516 13.3 157.9 13.636C157.294 13.9627 156.622 14.126 155.884 14.126ZM155.884 12.74C156.295 12.74 156.678 12.642 157.032 12.446C157.396 12.25 157.69 11.956 157.914 11.564C158.138 11.172 158.25 10.696 158.25 10.136C158.25 9.576 158.143 9.10467 157.928 8.722C157.714 8.33 157.429 8.036 157.074 7.84C156.72 7.644 156.337 7.546 155.926 7.546C155.516 7.546 155.133 7.644 154.778 7.84C154.433 8.036 154.158 8.33 153.952 8.722C153.747 9.10467 153.644 9.576 153.644 10.136C153.644 10.9667 153.854 11.6107 154.274 12.068C154.704 12.516 155.24 12.74 155.884 12.74ZM163.328 7.588V11.858C163.328 12.1473 163.393 12.3573 163.524 12.488C163.664 12.6093 163.897 12.67 164.224 12.67H165.204V14H163.944C163.225 14 162.675 13.832 162.292 13.496C161.909 13.16 161.718 12.614 161.718 11.858V7.588H160.808V6.286H161.718V4.368H163.328V6.286H165.204V7.588H163.328ZM170.665 6.16C171.253 6.16 171.776 6.286 172.233 6.538C172.7 6.79 173.064 7.16333 173.325 7.658C173.596 8.15267 173.731 8.75 173.731 9.45V14H172.149V9.688C172.149 8.99733 171.976 8.47 171.631 8.106C171.286 7.73267 170.814 7.546 170.217 7.546C169.62 7.546 169.144 7.73267 168.789 8.106C168.444 8.47 168.271 8.99733 168.271 9.688V14H166.675V3.64H168.271V7.182C168.542 6.85533 168.882 6.60333 169.293 6.426C169.713 6.24867 170.17 6.16 170.665 6.16Z" fill="#444444"/>
<path d="M203.095 0H199.286C198.024 0 197 1.02363 197 2.28635V6.57681H198.807V2.28635C198.807 2.02184 199.022 1.80741 199.286 1.80741H203.095V0Z" fill="#0889FE"/>
<path d="M208.7 1.80741V0H212.714C213.976 0 215 1.02363 215 2.28635V6.57681H213.193V2.28635C213.193 2.02184 212.978 1.80741 212.714 1.80741H208.7Z" fill="#0889FE"/>
<path d="M208.7 16.1926H212.714C212.978 16.1926 213.193 15.9782 213.193 15.7137V12.1815H215V15.7137C215 16.9764 213.976 18 212.714 18H208.7V16.1926Z" fill="#0889FE"/>
<path d="M198.807 12.1815V15.7137C198.807 15.9782 199.022 16.1926 199.286 16.1926H203.095V18H199.286C198.024 18 197 16.9764 197 15.7137V12.1815H198.807Z" fill="#0889FE"/>
<path d="M225.013 11.83C225.909 11.0553 226.614 10.4207 227.127 9.926C227.65 9.422 228.084 8.89933 228.429 8.358C228.774 7.81667 228.947 7.27533 228.947 6.734C228.947 6.174 228.812 5.73533 228.541 5.418C228.28 5.10067 227.864 4.942 227.295 4.942C226.744 4.942 226.315 5.11933 226.007 5.474C225.708 5.81933 225.55 6.286 225.531 6.874H223.991C224.019 5.81 224.336 4.998 224.943 4.438C225.559 3.86867 226.338 3.584 227.281 3.584C228.298 3.584 229.092 3.864 229.661 4.424C230.24 4.984 230.529 5.73067 230.529 6.664C230.529 7.336 230.356 7.98467 230.011 8.61C229.675 9.226 229.269 9.78133 228.793 10.276C228.326 10.7613 227.729 11.326 227.001 11.97L226.371 12.53H230.809V13.86H224.005V12.698L225.013 11.83ZM232.211 8.764C232.211 7.14933 232.482 5.88933 233.023 4.984C233.574 4.06933 234.516 3.612 235.851 3.612C237.186 3.612 238.124 4.06933 238.665 4.984C239.216 5.88933 239.491 7.14933 239.491 8.764C239.491 10.3973 239.216 11.676 238.665 12.6C238.124 13.5147 237.186 13.972 235.851 13.972C234.516 13.972 233.574 13.5147 233.023 12.6C232.482 11.676 232.211 10.3973 232.211 8.764ZM237.923 8.764C237.923 8.008 237.872 7.36867 237.769 6.846C237.676 6.32333 237.48 5.89867 237.181 5.572C236.882 5.236 236.439 5.068 235.851 5.068C235.263 5.068 234.82 5.236 234.521 5.572C234.222 5.89867 234.022 6.32333 233.919 6.846C233.826 7.36867 233.779 8.008 233.779 8.764C233.779 9.548 233.826 10.206 233.919 10.738C234.012 11.27 234.208 11.6993 234.507 12.026C234.815 12.3527 235.263 12.516 235.851 12.516C236.439 12.516 236.882 12.3527 237.181 12.026C237.489 11.6993 237.69 11.27 237.783 10.738C237.876 10.206 237.923 9.548 237.923 8.764ZM241.18 8.764C241.18 7.14933 241.451 5.88933 241.992 4.984C242.543 4.06933 243.485 3.612 244.82 3.612C246.155 3.612 247.093 4.06933 247.634 4.984C248.185 5.88933 248.46 7.14933 248.46 8.764C248.46 10.3973 248.185 11.676 247.634 12.6C247.093 13.5147 246.155 13.972 244.82 13.972C243.485 13.972 242.543 13.5147 241.992 12.6C241.451 11.676 241.18 10.3973 241.18 8.764ZM246.892 8.764C246.892 8.008 246.841 7.36867 246.738 6.846C246.645 6.32333 246.449 5.89867 246.15 5.572C245.851 5.236 245.408 5.068 244.82 5.068C244.232 5.068 243.789 5.236 243.49 5.572C243.191 5.89867 242.991 6.32333 242.888 6.846C242.795 7.36867 242.748 8.008 242.748 8.764C242.748 9.548 242.795 10.206 242.888 10.738C242.981 11.27 243.177 11.6993 243.476 12.026C243.784 12.3527 244.232 12.516 244.82 12.516C245.408 12.516 245.851 12.3527 246.15 12.026C246.458 11.6993 246.659 11.27 246.752 10.738C246.845 10.206 246.892 9.548 246.892 8.764ZM250.149 8.764C250.149 7.14933 250.419 5.88933 250.961 4.984C251.511 4.06933 252.454 3.612 253.789 3.612C255.123 3.612 256.061 4.06933 256.603 4.984C257.153 5.88933 257.429 7.14933 257.429 8.764C257.429 10.3973 257.153 11.676 256.603 12.6C256.061 13.5147 255.123 13.972 253.789 13.972C252.454 13.972 251.511 13.5147 250.961 12.6C250.419 11.676 250.149 10.3973 250.149 8.764ZM255.861 8.764C255.861 8.008 255.809 7.36867 255.707 6.846C255.613 6.32333 255.417 5.89867 255.119 5.572C254.82 5.236 254.377 5.068 253.789 5.068C253.201 5.068 252.757 5.236 252.459 5.572C252.16 5.89867 251.959 6.32333 251.857 6.846C251.763 7.36867 251.717 8.008 251.717 8.764C251.717 9.548 251.763 10.206 251.857 10.738C251.95 11.27 252.146 11.6993 252.445 12.026C252.753 12.3527 253.201 12.516 253.789 12.516C254.377 12.516 254.82 12.3527 255.119 12.026C255.427 11.6993 255.627 11.27 255.721 10.738C255.814 10.206 255.861 9.548 255.861 8.764ZM266.17 14.098C265.517 14.098 264.929 13.986 264.406 13.762C263.883 13.5287 263.473 13.202 263.174 12.782C262.875 12.362 262.726 11.872 262.726 11.312H264.434C264.471 11.732 264.635 12.0773 264.924 12.348C265.223 12.6187 265.638 12.754 266.17 12.754C266.721 12.754 267.15 12.6233 267.458 12.362C267.766 12.0913 267.92 11.746 267.92 11.326C267.92 10.9993 267.822 10.7333 267.626 10.528C267.439 10.3227 267.201 10.164 266.912 10.052C266.632 9.94 266.24 9.81867 265.736 9.688C265.101 9.52 264.583 9.352 264.182 9.184C263.79 9.00667 263.454 8.736 263.174 8.372C262.894 8.008 262.754 7.52267 262.754 6.916C262.754 6.356 262.894 5.866 263.174 5.446C263.454 5.026 263.846 4.704 264.35 4.48C264.854 4.256 265.437 4.144 266.1 4.144C267.043 4.144 267.813 4.382 268.41 4.858C269.017 5.32467 269.353 5.96867 269.418 6.79H267.654C267.626 6.43533 267.458 6.132 267.15 5.88C266.842 5.628 266.436 5.502 265.932 5.502C265.475 5.502 265.101 5.61867 264.812 5.852C264.523 6.08533 264.378 6.42133 264.378 6.86C264.378 7.15867 264.467 7.406 264.644 7.602C264.831 7.78867 265.064 7.938 265.344 8.05C265.624 8.162 266.007 8.28333 266.492 8.414C267.136 8.59133 267.659 8.76867 268.06 8.946C268.471 9.12333 268.816 9.39867 269.096 9.772C269.385 10.136 269.53 10.626 269.53 11.242C269.53 11.7367 269.395 12.2033 269.124 12.642C268.863 13.0807 268.475 13.4353 267.962 13.706C267.458 13.9673 266.861 14.098 266.17 14.098ZM270.881 10.108C270.881 9.33333 271.04 8.64733 271.357 8.05C271.684 7.45267 272.123 6.99067 272.673 6.664C273.233 6.328 273.854 6.16 274.535 6.16C275.133 6.16 275.66 6.28133 276.117 6.524C276.584 6.76667 276.943 7.06067 277.195 7.406V6.286H278.805V17.668H277.195V12.88C276.943 13.2253 276.579 13.5193 276.103 13.762C275.627 14.0047 275.086 14.126 274.479 14.126C273.817 14.126 273.21 13.958 272.659 13.622C272.118 13.2767 271.684 12.8007 271.357 12.194C271.04 11.578 270.881 10.8827 270.881 10.108ZM277.195 10.136C277.195 9.604 277.083 9.142 276.859 8.75C276.645 8.358 276.36 8.05933 276.005 7.854C275.651 7.64867 275.268 7.546 274.857 7.546C274.447 7.546 274.064 7.64867 273.709 7.854C273.355 8.05 273.065 8.344 272.841 8.736C272.627 9.11867 272.519 9.576 272.519 10.108C272.519 10.64 272.627 11.1067 272.841 11.508C273.065 11.9093 273.355 12.2173 273.709 12.432C274.073 12.6373 274.456 12.74 274.857 12.74C275.268 12.74 275.651 12.6373 276.005 12.432C276.36 12.2267 276.645 11.928 276.859 11.536C277.083 11.1347 277.195 10.668 277.195 10.136ZM284.136 7.588H282.708V14H281.098V7.588H280.188V6.286H281.098V5.74C281.098 4.85333 281.331 4.20933 281.798 3.808C282.274 3.39733 283.016 3.192 284.024 3.192V4.522C283.538 4.522 283.198 4.61533 283.002 4.802C282.806 4.97933 282.708 5.292 282.708 5.74V6.286H284.136V7.588ZM287.412 7.588V11.858C287.412 12.1473 287.477 12.3573 287.608 12.488C287.748 12.6093 287.981 12.67 288.308 12.67H289.288V14H288.028C287.309 14 286.759 13.832 286.376 13.496C285.993 13.16 285.802 12.614 285.802 11.858V7.588H284.892V6.286H285.802V4.368H287.412V6.286H289.288V7.588H287.412Z" fill="#444444"/>
</svg>
